<?xml version="1.0" encoding="utf-8"?>
<!-- Generator: Adobe Illustrator 22.0.1, SVG Export Plug-In . SVG Version: 6.00 Build 0)  -->
<svg version="1.1" xmlns="http://www.w3.org/2000/svg" xmlns:xlink="http://www.w3.org/1999/xlink" x="0px" y="0px"
	 viewBox="0 0 520.3 159.1" style="enable-background:new 0 0 520.3 159.1;" xml:space="preserve">
<style type="text/css">
	.st0{fill:#24136B;}
</style>
<g id="_x31_">
	<g>
		<path class="st0" d="M221.7,82.4l14.1-0.1c5.6,0,8.4,2.6,8.4,7.7v23.8c-7.2,2.5-15.1,3.8-23.7,3.8c-4.4,0-8.2-0.8-11.5-2.3
			c-3.3-1.5-6-3.7-8.2-6.4c-2.2-2.8-3.8-6.1-4.9-10.1c-1.1-3.9-1.6-8.3-1.6-13.1c0-5.6,0.8-10.4,2.4-14.5c1.6-4.1,3.7-7.5,6.3-10.2
			c2.6-2.7,5.6-4.7,9-6c3.4-1.3,7-2,10.8-2c7.7,0,14.9,2.2,21.3,6.5c-0.2,1.8-0.8,3.5-2,5.1c-1.1,1.7-2.3,2.9-3.7,3.8
			c-4.8-3.4-9.9-5.2-15.3-5.2c-10.9,0-16.3,7.4-16.3,22.2c0,14.8,5.4,22.2,16.3,22.2c3.3,0,6.5-0.4,9.6-1.1v-8.1c0-1.3,0-2.5,0-3.5
			c0-1,0.1-1.8,0.1-2.5h-6.2c-2.1,0-3.6-0.4-4.5-1.3c-0.9-0.8-1.3-2.2-1.3-4.1C220.8,85.7,221.1,84.1,221.7,82.4z"/>
		<path class="st0" d="M277.4,95.7h-8.3v20.6c-1.7,0.3-3.8,0.5-6.1,0.5c-2.4,0-4.4-0.2-6.1-0.5V54.8l0.6-0.5c4.9-0.1,9-0.2,12.3-0.3
			c3.3-0.1,5.8-0.1,7.6-0.1c6.5,0,11.8,1.8,15.7,5.4c3.9,3.6,5.9,8.7,5.9,15.5c0,3.4-0.5,6.4-1.5,9c-1,2.6-2.5,4.8-4.3,6.5
			c-1.9,1.8-4.1,3.1-6.7,4C283.6,95.3,280.7,95.7,277.4,95.7z M269.1,63.3v23.2c2.3-0.1,4.3-0.1,6-0.1c1.7,0,3.1-0.1,4.2-0.3
			c1.2-0.2,2.2-0.6,3-1.2c0.8-0.6,1.5-1.4,2.2-2.6c0.6-1,1.1-2.2,1.4-3.5c0.3-1.3,0.5-2.6,0.5-3.9c0-1.4-0.2-2.8-0.5-4.1
			s-0.8-2.6-1.5-3.7s-1.7-2-2.9-2.6c-1.2-0.7-2.7-1-4.5-1c-1.7,0-3.3,0-4.6,0C271.1,63.4,270,63.4,269.1,63.3z"/>
		<path class="st0" d="M356.1,54.3V94c0,7.6-2.1,13.4-6.2,17.5c-4.1,4.1-10,6.1-17.6,6.1c-7.5,0-13.3-2-17.5-6.1
			c-4.1-4.1-6.2-9.9-6.2-17.5V54.4l0.5-0.6h4.6c2.4,0,4.2,0.6,5.4,1.9c1.2,1.2,1.7,3.2,1.7,5.9v32.5c0,9.2,3.8,13.8,11.4,13.8
			c7.7,0,11.5-4.6,11.5-13.8V54.3c1.7-0.3,3.7-0.5,6.1-0.5C352.3,53.9,354.4,54,356.1,54.3z"/>
		<path class="st0" d="M406.5,86v19.8c0,3.9,0.6,6.7,1.9,8.6c-1.9,1.7-4.3,2.5-7,2.5c-2.6,0-4.4-0.6-5.4-1.8c-1-1.2-1.5-3-1.5-5.6
			V88.5c0-2.7-0.3-4.6-1-5.7c-0.7-1.1-1.9-1.6-3.7-1.6c-3.2,0-6.2,1.5-9,4.4v30.9c-0.9,0.2-1.9,0.3-2.9,0.4c-1,0.1-2,0.1-3,0.1
			c-1,0-2,0-3-0.1c-1-0.1-2-0.2-2.9-0.4V71.4l0.5-0.6h4.5c3.4,0,5.5,1.8,6.4,5.4c4.4-3.8,8.8-5.7,13.2-5.7c4.4,0,7.6,1.4,9.7,4.2
			C405.4,77.5,406.5,81.3,406.5,86z"/>
		<path class="st0" d="M432.2,80.5v35.9c-0.9,0.2-1.9,0.3-2.9,0.4c-1,0.1-2,0.1-3,0.1c-1,0-2,0-3-0.1c-1-0.1-2-0.2-3-0.4V84.7
			c0-3.3-1.4-5-4.1-5H415c-0.4-1.3-0.5-2.7-0.5-4.2c0-1.3,0.2-2.7,0.5-4.2c1.4-0.1,2.7-0.2,3.9-0.3c1.2-0.1,2.2-0.1,3-0.1h1.5
			c2.7,0,4.9,0.8,6.4,2.5C431.4,75.2,432.2,77.5,432.2,80.5z M418.5,53.8c1.4-0.8,3.4-1.2,6-1.2c1.5,0,2.7,0.1,3.7,0.4
			c0.9,0.2,1.6,0.5,2,0.9c0.4,0.3,0.7,1,0.8,1.9c0.1,0.9,0.2,1.8,0.2,2.8c-0.2,3.1-0.6,4.8-1.1,5.1c-0.6,0.3-2.5,0.6-5.7,0.9
			c-3.4-0.1-5.4-0.6-5.9-1.4c-0.6-0.8-0.9-2.3-0.9-4.6C417.6,56.8,417.9,55.2,418.5,53.8z"/>
		<path class="st0" d="M468.4,71.2c0.4,1.5,0.5,2.9,0.5,4.3c0,1.4-0.2,2.8-0.5,4.3l-11-0.2v23.9c0,2.8,1.3,4.2,3.9,4.2h5.6
			c0.6,1.8,0.9,3.5,0.9,5.2c0,1.6-0.1,2.7-0.3,3.2c-3.7,0.5-7.3,0.8-10.9,0.8c-7.3,0-10.9-3.7-10.9-11.1V79.7l-6.9,0.1
			c-0.3-1.2-0.5-2.6-0.5-4.3s0.2-3.1,0.5-4.3l6.9,0.1v-6.5c0-2.7,0.5-4.5,1.5-5.6c1-1.1,2.6-1.6,5-1.6h4.5l0.6,0.5v13.3L468.4,71.2z
			"/>
		<path class="st0" d="M514.6,72.4L503,115.1c-2,7.2-4.5,12.5-7.6,16c-3.1,3.5-7.6,5.2-13.8,5.2c-3.4,0-6.7-0.6-9.9-1.7
			c-0.1-1.3,0.1-2.8,0.5-4.5c0.5-1.7,1.1-3,1.9-3.9c2.7,0.8,5.2,1.3,7.5,1.3c4.7,0,7.9-3.1,9.8-9.3l0.4-1.2
			c-2.3-0.1-4.1-0.5-5.4-1.3c-1.3-0.8-2.3-2.1-2.8-4l-11.3-39.4c2.5-1.1,4.7-1.7,6.6-1.7c1.9,0,3.3,0.4,4.3,1.1
			c0.9,0.8,1.7,2.1,2.2,4l5.2,19.2c0.4,1.4,1.2,5.6,2.6,12.6c0.1,0.4,0.3,0.6,0.8,0.6l8.9-36.8c1.4-0.4,3.1-0.5,5.3-0.5
			c2.1,0,4.1,0.3,5.8,0.9L514.6,72.4z"/>
	</g>
</g>
<g id="logo">
	<g id="XMLID_424_">
		<g id="XMLID_64_">
			<path id="XMLID_1_" class="st0" d="M75.9,136.9c-5.9,0-10.7,4.8-10.7,10.7c0,5.9,4.8,10.7,10.7,10.7c5.9,0,10.7-4.8,10.7-10.7
				C86.5,141.7,81.7,136.9,75.9,136.9z"/>
			<path id="XMLID_130_" class="st0" d="M11.9,71C6.1,71,1.3,75.7,1.3,81.6c0,5.9,4.8,10.7,10.7,10.7c5.9,0,10.7-4.8,10.7-10.7
				C22.6,75.7,17.8,71,11.9,71z"/>
			
				<ellipse id="XMLID_108_" transform="matrix(0.9981 -6.185421e-02 6.185421e-02 0.9981 -6.956 2.8234)" class="st0" cx="42.1" cy="113.8" rx="10.7" ry="10.7"/>
			<path id="XMLID_106_" class="st0" d="M140.9,66.8c-2.9,0-5.7,0.8-8.1,2.1l-12-12.2c1.1-2.2,1.7-4.6,1.7-7.2
				c0-9.1-7.3-16.4-16.4-16.4s-16.4,7.3-16.4,16.4c0,9.1,7.3,16.4,16.4,16.4c3.4,0,6.6-1,9.2-2.8l11.5,11.8
				c-1.5,2.4-2.3,5.3-2.3,8.4c0,3,0.8,5.7,2.2,8.1l-13.3,13.1c-2-1.1-4.3-1.8-6.7-1.8c-7.7,0-13.9,6.2-13.9,13.9
				c0,7.7,6.2,13.9,13.9,13.9c7.7,0,13.9-6.2,13.9-13.9c0-2.2-0.5-4.2-1.4-6l13.4-13.3c2.4,1.4,5.3,2.3,8.3,2.3
				c9.1,0,16.4-7.3,16.4-16.4C157.3,74.1,150,66.8,140.9,66.8z"/>
			<path id="XMLID_98_" class="st0" d="M73.9,68.6c-2.3,0-4.5,0.6-6.4,1.6l-12.1-12c1-1.9,1.6-4,1.6-6.3c0-2.4-0.7-4.6-1.7-6.6
				l12.6-13c2.4,1.3,5.1,2.1,8,2.1c9.1,0,16.4-7.3,16.4-16.4S84.9,1.7,75.9,1.7c-9.1,0-16.4,7.3-16.4,16.4c0,3.1,0.9,6,2.4,8.5
				l-12.6,13c-1.9-0.9-3.9-1.5-6.2-1.5c-7.7,0-13.9,6.2-13.9,13.9s6.2,13.9,13.9,13.9c2.3,0,4.5-0.6,6.4-1.6l12.1,12
				c-1,1.9-1.6,4-1.6,6.3c0,7.7,6.2,13.9,13.9,13.9s13.9-6.2,13.9-13.9C87.9,74.9,81.6,68.6,73.9,68.6z"/>
		</g>
	</g>
</g>
</svg>
